<?xml version="1.0" encoding="UTF-8" standalone="no"?>
<svg
   xmlns:dc="http://purl.org/dc/elements/1.1/"
   xmlns:cc="http://creativecommons.org/ns#"
   xmlns:rdf="http://www.w3.org/1999/02/22-rdf-syntax-ns#"
   xmlns:svg="http://www.w3.org/2000/svg"
   xmlns="http://www.w3.org/2000/svg"
   xmlns:sodipodi="http://sodipodi.sourceforge.net/DTD/sodipodi-0.dtd"
   xmlns:inkscape="http://www.inkscape.org/namespaces/inkscape"
   version="1.1"
   id="svg2"
   viewBox="0 0 468 160"
   height="160"
   width="468"
   sodipodi:docname="coleo2.svg"
   inkscape:version="0.92.2 (5c3e80d, 2017-08-06)">
  <sodipodi:namedview
     pagecolor="#ffffff"
     bordercolor="#666666"
     borderopacity="1"
     objecttolerance="10"
     gridtolerance="10"
     guidetolerance="10"
     inkscape:pageopacity="0"
     inkscape:pageshadow="2"
     inkscape:window-width="731"
     inkscape:window-height="480"
     id="namedview39737"
     showgrid="false"
     inkscape:zoom="0.31200331"
     inkscape:cx="234"
     inkscape:cy="80"
     inkscape:window-x="301"
     inkscape:window-y="108"
     inkscape:window-maximized="0"
     inkscape:current-layer="layer1" />
  <defs
     id="defs4" />
  <metadata
     id="metadata7">
    <rdf:RDF>
      <cc:Work
         rdf:about="">
        <dc:format>image/svg+xml</dc:format>
        <dc:type
           rdf:resource="http://purl.org/dc/dcmitype/StillImage" />
        <dc:title />
      </cc:Work>
    </rdf:RDF>
  </metadata>
  <g
     transform="translate(0,-892.3622)"
     id="layer1">
    <text
       transform="scale(1.0086823,0.99139243)"
       id="text5622-8"
       y="959.36951"
       x="29.139137"
       style="font-style:normal;font-variant:normal;font-weight:normal;font-stretch:normal;line-height:0%;font-family:'Gill Sans';-inkscape-font-specification:'Gill Sans';text-align:start;letter-spacing:0px;word-spacing:0px;writing-mode:lr-tb;text-anchor:start;fill:#ffffff;fill-opacity:1;stroke:none;stroke-width:1px;stroke-linecap:butt;stroke-linejoin:miter;stroke-opacity:1;"
       xml:space="preserve"><tspan
         style="font-style:normal;font-variant:normal;font-weight:bold;font-stretch:normal;font-size:40.46047973999999670px;line-height:125%;font-family:'Gill Sans';-inkscape-font-specification:'Gill Sans Bold';text-align:start;letter-spacing:0px;word-spacing:0px;writing-mode:lr-tb;text-anchor:start;fill:#ffffff;fill-opacity:1;"
         y="959.36951"
         x="29.139137"
         id="tspan5624-4">Coléo</tspan></text>
    <text
       transform="scale(1.0086823,0.99139243)"
       id="text5626-3"
       y="957.94763"
       x="219.73872"
       style="font-style:normal;font-weight:normal;font-size:14.82771014999999970px;line-height:0%;font-family:sans-serif;letter-spacing:0px;word-spacing:0px;fill:#ffffff;fill-opacity:1;stroke:none;stroke-width:1.23564254999999990px;stroke-linecap:butt;stroke-linejoin:miter;stroke-opacity:1;"
       xml:space="preserve"><tspan
         id="tspan3358"
         style="font-style:normal;font-variant:normal;font-weight:300;font-stretch:normal;font-size:32.14083098999999777px;line-height:125%;font-family:'Gill Sans';-inkscape-font-specification:'Gill Sans, Light';text-align:start;writing-mode:lr-tb;text-anchor:start;fill:#ffffff;stroke-width:1.23564254999999990px;"
         y="957.94763"
         x="219.73872">Portail de suivi de la </tspan><tspan
         id="tspan4242"
         style="font-style:normal;font-variant:normal;font-weight:300;font-stretch:normal;font-size:32.14083098999999777px;line-height:125%;font-family:'Gill Sans';-inkscape-font-specification:'Gill Sans, Light';text-align:start;writing-mode:lr-tb;text-anchor:start;fill:#ffffff;stroke-width:1.23564254999999990px;"
         y="998.12366"
         x="219.73872">biodiversité du Québec </tspan></text>
    <path
       style="fill:#ffffff;fill-opacity:1"
       id="path6319-3"
       d="m 147.8019,942.71442 c 0,0 6.61607,-10.61785 14.00892,-12.96236 1.28271,-0.3648 3.04703,-0.51538 3.92069,-0.33465 1.50601,0.31156 1.67758,0.21595 3.30393,-1.84242 2.68204,-3.39434 4.86398,-5.00369 7.36007,-5.42854 l 2.22483,-0.37871 -0.49677,-1.98812 c -0.43807,-1.75327 -0.34432,-2.22973 0.79363,-4.03308 1.75726,-2.78352 3.72131,-3.70361 7.07254,-3.31083 2.53932,0.29769 5.67245,1.75166 6.73504,3.12557 0.40253,0.52048 0.23838,0.6605 -1.0685,0.91153 -1.66979,0.3207 -2.99423,1.89875 -3.11026,3.70582 -0.12201,1.90164 1.93471,4.2486 5.76779,6.58137 3.83306,2.33282 6.88739,3.09645 8.56496,2.14148 1.44446,-0.82226 2.41312,-2.73967 2.08238,-4.12193 -0.16593,-0.69351 -0.0929,-1.36328 0.16271,-1.48833 0.91685,-0.44959 4.45487,2.17308 5.94705,4.40846 1.85139,2.77351 1.88937,4.91203 0.13668,7.69834 -1.13485,1.80523 -1.52753,2.09977 -3.31964,2.49574 l -2.03219,0.44904 0.64668,2.12627 c 0.7255,2.38552 0.23222,5.02257 -1.66403,8.89516 -1.14986,2.34829 -1.16053,2.5419 -0.20554,3.72808 1.74363,2.16584 2.35542,9.51037 0.97468,11.70193 -0.45353,2.94504 -35.76389,83.06076 -72.39479,67.91446 -3.8641,-1.6872 -4.91742,-2.3283 -8.17032,-4.9727 -27.31083,-29.3314 16.47084,-76.31779 22.76001,-85.02152 z m 9.4835,40.96808 c 6.07234,-9.91442 11.60473,-20.56823 11.60473,-20.56823 -3.04269,-3.62848 -6.71399,-5.75592 -9.20783,-7.2313 -7.37955,-4.35968 -8.40731,-3.38341 -10.65181,-3.55385 -15.73645,3.07699 -42.18238,57.13058 -20.45549,73.00388 l 0.85221,0.5636 c 10.83963,-15.9056 21.27349,-31.5653 27.85817,-42.214 z m -20.93312,45.8395 c 27.73187,3.1454 57.09255,-37.5084 54.83409,-51.53174 0.64384,-1.92478 -0.67353,-3.21198 -7.96274,-7.78017 -3.46815,-2.07888 -7.16132,-5.77891 -10.7292,-3.88906 -0.47171,0.35323 -6.21454,9.09267 -12.54716,18.85547 -8.25521,13.311 -16.15164,25.2788 -23.72991,38.1077 -2.91282,5.4603 -3.66465,4.9035 0.13496,6.2378 z m 56.35013,-56.51344 c 6.78366,0.17077 13.62319,-12.83026 10.23508,-19.16063 -6.81469,-9.85393 -34.25161,-21.9815 -34.25161,-21.9815 -9.35554,-2.37832 -20.88398,10.84799 -13.82363,18.85444 8.61026,5.36477 28.63827,17.94465 37.84016,22.28769 z" />
  </g>
</svg>
