<?xml version="1.0" encoding="UTF-8" standalone="no"?>
<!-- Created with Inkscape (http://www.inkscape.org/) -->

<svg
   xmlns:dc="http://purl.org/dc/elements/1.1/"
   xmlns:cc="http://creativecommons.org/ns#"
   xmlns:rdf="http://www.w3.org/1999/02/22-rdf-syntax-ns#"
   xmlns:svg="http://www.w3.org/2000/svg"
   xmlns="http://www.w3.org/2000/svg"
   xmlns:sodipodi="http://sodipodi.sourceforge.net/DTD/sodipodi-0.dtd"
   xmlns:inkscape="http://www.inkscape.org/namespaces/inkscape"
   version="1.1"
   id="svg885"
   width="512"
   height="512"
   viewBox="0 0 512 512"
   sodipodi:docname="data_cube.svg"
   inkscape:version="0.92.2 (5c3e80d, 2017-08-06)">
  <metadata
     id="metadata891">
    <rdf:RDF>
      <cc:Work
         rdf:about="">
        <dc:format>image/svg+xml</dc:format>
        <dc:type
           rdf:resource="http://purl.org/dc/dcmitype/StillImage" />
        <dc:title></dc:title>
      </cc:Work>
    </rdf:RDF>
  </metadata>
  <defs
     id="defs889" />
  <sodipodi:namedview
     pagecolor="#ffffff"
     bordercolor="#666666"
     borderopacity="1"
     objecttolerance="10"
     gridtolerance="10"
     guidetolerance="10"
     inkscape:pageopacity="0"
     inkscape:pageshadow="2"
     inkscape:window-width="1633"
     inkscape:window-height="1006"
     id="namedview887"
     showgrid="false"
     inkscape:zoom="0.56761892"
     inkscape:cx="256"
     inkscape:cy="355.65937"
     inkscape:window-x="47"
     inkscape:window-y="22"
     inkscape:window-maximized="0"
     inkscape:current-layer="svg885" />
  <path
     style="fill:#034370;fill-opacity:1;stroke-width:0.91858464"
     d="m 203.61214,475.25934 -43.17348,-21.86514 -0.23699,-53.90402 -0.23699,-53.90403 44.0994,22.05346 44.09941,22.05345 v 53.73532 c 0,29.55444 -0.31002,53.7265 -0.68894,53.71571 -0.37891,-0.0108 -20.117,-9.85894 -43.86241,-21.88475 z m 71.19031,-31.83096 v -53.73532 l 44.09941,-22.05345 44.0994,-22.05346 -0.23699,53.91966 -0.23699,53.91965 -43.17348,21.84687 c -23.74541,12.01578 -43.4835,21.85688 -43.86242,21.86912 -0.37891,0.0122 -0.68893,-24.15863 -0.68893,-53.71307 z M 94.300568,420.13399 51.12709,398.25771 l -0.236991,-53.89332 -0.236991,-53.89332 44.099407,22.05346 44.099405,22.05345 v 53.73533 c 0,29.55443 -0.31002,53.72669 -0.68894,53.71614 -0.37891,-0.0106 -20.117,-9.86351 -43.862412,-21.89546 z M 384.11402,388.31331 v -53.73533 l 44.09941,-22.05345 44.0994,-22.05346 -0.23699,53.87828 -0.23699,53.87829 -43.17348,21.89367 c -23.74541,12.04153 -43.4835,21.90125 -43.86242,21.9105 -0.37891,0.009 -0.68893,-24.16407 -0.68893,-53.7185 z M 202.92381,340.16743 159.98058,318.499 l -6.1e-4,-54.03318 -6e-4,-54.0332 44.07958,22.34203 44.07958,22.34201 0.0125,53.50756 c 0.01,42.27834 -0.22849,53.4765 -1.13575,53.3596 -0.63153,-0.0814 -20.47268,-9.89876 -44.09146,-21.81639 z m 71.89112,-31.54321 0.0125,-53.50756 44.07959,-22.34201 44.07958,-22.34203 v 54.0377 54.03768 l -43.63532,21.81189 c -23.99942,11.99654 -43.84084,21.81188 -44.09206,21.81188 -0.25121,0 -0.45113,-24.0784 -0.44426,-53.50755 z M 94.070921,285.15323 50.667798,263.39296 V 209.3684 155.34384 l 44.074386,22.32887 44.074386,22.32888 0.0176,53.50755 c 0.01,29.42916 -0.29235,53.48433 -0.67126,53.45595 -0.37892,-0.0284 -20.22035,-9.84372 -44.092065,-21.81186 z m 290.057639,-31.64409 0.0145,-53.50755 44.07751,-22.33863 44.07752,-22.33862 v 54.0343 54.03429 l -43.63531,21.81188 c -23.99942,11.99654 -43.84085,21.81188 -44.09206,21.81188 -0.25122,0 -0.4502,-24.07839 -0.44221,-53.50755 z m -171.20454,-42.26231 -47.64037,-24.9169 47.4843,-23.74566 c 32.86057,-16.43271 48.03317,-23.57146 49.26653,-23.18 0.98023,0.31111 22.72678,10.88537 48.32567,23.49836 l 46.54344,22.9327 -47.99851,25.22518 c -26.39918,13.87384 -48.0755,25.19773 -48.1696,25.16419 -0.0941,-0.0335 -21.60926,-11.27358 -47.81146,-24.97787 z M 97.974906,151.24891 c -23.745412,-12.39557 -43.452532,-22.82498 -43.7936,-23.17646 -0.341067,-0.35148 20.654227,-10.51338 46.656204,-22.58201 l 47.27633,-21.942969 15.34826,7.418113 c 34.08985,16.476296 73.83466,36.155716 73.53628,36.411076 -0.74452,0.63716 -94.73603,46.4436 -95.26579,46.42746 -0.32131,-0.01 -20.01227,-10.15964 -43.757684,-22.55521 z M 331.9957,150.15572 c -25.88636,-12.49728 -47.07121,-22.95516 -47.07746,-23.23976 -0.006,-0.28458 6.70579,-3.7527 14.91564,-7.70692 8.20985,-3.95422 28.16271,-13.79822 44.3397,-21.875553 l 29.4127,-14.686049 37.18468,16.965209 c 20.45157,9.330873 42.03637,19.171923 47.9662,21.869003 5.92983,2.69708 10.6835,4.99291 10.56372,5.10185 -1.23051,1.11906 -88.11991,46.31658 -89.02268,46.30719 -0.66902,-0.007 -22.39614,-10.23769 -48.2825,-22.73497 z"
     id="path895"
     inkscape:connector-curvature="0"
     sodipodi:nodetypes="scccccscsscccccscsscccccscsscccccscsccccccscccccccccsscccccccccsccccccccssccscssscscsscscsccsscsscscscs" />
  <path
     style="fill:#ffd42a;fill-rule:evenodd;stroke:none;stroke-width:0.91858464px;stroke-linecap:butt;stroke-linejoin:miter;stroke-opacity:1"
     d="m 171.19459,50.212125 93.63984,-43.895986 87.7348,43.323827 -93.8342,46.344944 z"
     id="path925"
     inkscape:connector-curvature="0" />
</svg>
